<svg xmlns="http://www.w3.org/2000/svg" width="18" height="24" viewBox="0 0 18 24">
  <g id="Group_9228" data-name="Group 9228" transform="translate(-689 -369)">
    <g id="Path_1644" data-name="Path 1644" transform="translate(689 369)" fill="none">
      <path d="M2.25,0h13.5C16.993,0,18,1.343,18,3V21c0,1.657-1.007,3-2.25,3H2.25C1.007,24,0,22.657,0,21V3C0,1.343,1.007,0,2.25,0Z" stroke="none"/>
      <path d="M 2.25 1.5 C 1.985589981079102 1.5 1.5 2.069490432739258 1.5 3 L 1.5 21 C 1.5 21.93050956726074 1.985589981079102 22.5 2.25 22.5 L 15.75 22.5 C 16.0144100189209 22.5 16.5 21.93050956726074 16.5 21 L 16.5 3 C 16.5 2.069490432739258 16.0144100189209 1.5 15.75 1.5 L 2.25 1.5 M 2.25 0 L 15.75 0 C 16.99263954162598 0 18 1.3431396484375 18 3 L 18 21 C 18 22.65685081481934 16.99263954162598 24 15.75 24 L 2.25 24 C 1.007360458374023 24 0 22.65685081481934 0 21 L 0 3 C 0 1.3431396484375 1.007360458374023 0 2.25 0 Z" stroke="none" fill="#a9abbc"/>
    </g>
    <g id="Path_1645" data-name="Path 1645" transform="translate(692 372.3)" fill="none">
      <path d="M1.5,0h9c.828,0,1.5.951,1.5,2.125v12.75C12,16.049,11.328,17,10.5,17h-9C.672,17,0,16.049,0,14.875V2.125C0,.951.672,0,1.5,0Z" stroke="none"/>
      <path d="M 1.654951095581055 1.5 C 1.587538719177246 1.602506637573242 1.5 1.819882392883301 1.5 2.125 L 1.5 14.875 C 1.5 15.1801176071167 1.587538719177246 15.39749336242676 1.654951095581055 15.5 L 10.34504890441895 15.5 C 10.41246128082275 15.39749336242676 10.5 15.1801176071167 10.5 14.875 L 10.5 2.125 C 10.5 1.819882392883301 10.41246128082275 1.602506637573242 10.34504890441895 1.5 L 1.654951095581055 1.5 M 1.5 0 L 10.5 0 C 11.32843017578125 0 12 0.9513893127441406 12 2.125 L 12 14.875 C 12 16.04861068725586 11.32843017578125 17 10.5 17 L 1.5 17 C 0.67156982421875 17 0 16.04861068725586 0 14.875 L 0 2.125 C 0 0.9513893127441406 0.67156982421875 0 1.5 0 Z" stroke="none" fill="#a9abbc"/>
    </g>
  </g>
</svg>
