<svg xmlns="http://www.w3.org/2000/svg" width="21.3" height="16.466" viewBox="0 0 21.3 16.466">
  <g id="cloud-upload" transform="translate(-1.1 -5.1)">
    <path id="Path_1619" data-name="Path 1619" d="M11.207,6.712a5.233,5.233,0,0,0-5.214,4.742.742.742,0,0,1-.74.673,2.553,2.553,0,0,0-2.538,2.518,2.521,2.521,0,0,0,2.523,2.518H5.89a.731.731,0,1,1,0,1.462H5.238a3.978,3.978,0,0,1-.621-7.909A6.707,6.707,0,0,1,16.959,8.5a5.126,5.126,0,0,1,5.291,5.058A5.068,5.068,0,0,1,17.683,18.6a.731.731,0,1,1-.145-1.455,3.6,3.6,0,0,0,3.247-3.583A3.657,3.657,0,0,0,16.659,10a.743.743,0,0,1-.769-.4,5.237,5.237,0,0,0-4.683-2.885Z" transform="translate(0)" fill="#a9abbc" stroke="#a9abbc" stroke-width="0.3" fill-rule="evenodd"/>
    <path id="Path_1620" data-name="Path 1620" d="M11.957,15.039,13.9,16.983a.74.74,0,1,0,1.047-1.046l-2.118-2.118a1.234,1.234,0,0,0-1.744,0L8.967,15.936a.74.74,0,1,0,1.047,1.046Z" transform="translate(-0.207 -0.215)" fill="#a9abbc" stroke="#a9abbc" stroke-width="0.4" fill-rule="evenodd" opacity="0.6"/>
    <path id="Path_1621" data-name="Path 1621" d="M11.99,21.65a.74.74,0,0,0,.74-.74V14.99a.74.74,0,0,0-1.48,0v5.92A.74.74,0,0,0,11.99,21.65Z" transform="translate(-0.24 -0.284)" fill="#a9abbc" stroke="#a9abbc" stroke-width="0.4" fill-rule="evenodd" opacity="0.6"/>
  </g>
</svg>
