<svg xmlns="http://www.w3.org/2000/svg" width="24.5" height="24.5" viewBox="0 0 24.5 24.5">
  <g id="facebook" transform="translate(1.25 1.25)">
    <g id="Group_8855" data-name="Group 8855" transform="translate(-1 -1)">
      <path id="Path_1649" data-name="Path 1649" d="M21-1H1A1.981,1.981,0,0,0-1,1V21a1.981,1.981,0,0,0,2,2H21a1.981,1.981,0,0,0,2-2V1A1.981,1.981,0,0,0,21-1ZM11,22.2v-8H7.8V11H11V8.2a4.429,4.429,0,0,1,4-4.4h3.6V7H15.4a1.179,1.179,0,0,0-1.2,1.2V11h4v3.2h-4v8H11ZM22.2,21A1.179,1.179,0,0,1,21,22.2H15V15h4V10.2H15v-2a.378.378,0,0,1,.4-.4h4V3H14.96A5.25,5.25,0,0,0,10.2,8.2v2H7V15h3.2v7.2H1A1.179,1.179,0,0,1-.2,21V1A1.179,1.179,0,0,1,1-.2H21A1.179,1.179,0,0,1,22.2,1V21Z" transform="translate(1 1)" fill="#a9abbc" stroke="#a9abbc" stroke-width="0.5"/>
    </g>
  </g>
</svg>
