<svg xmlns="http://www.w3.org/2000/svg" width="24.2" height="24.2" viewBox="0 0 24.2 24.2">
  <g id="instagram" transform="translate(0.101 0.1)">
    <path id="Path_1646" data-name="Path 1646" d="M17.5,0H6.5A6.5,6.5,0,0,0,0,6.5V17.5A6.5,6.5,0,0,0,6.5,24H17.5A6.5,6.5,0,0,0,24,17.5V6.5A6.5,6.5,0,0,0,17.5,0Zm5.09,17.5a5.1,5.1,0,0,1-5.09,5.089H6.5A5.1,5.1,0,0,1,1.406,17.5V6.5A5.1,5.1,0,0,1,6.5,1.407H17.5A5.1,5.1,0,0,1,22.592,6.5Zm0,0" transform="translate(0 0)" fill="#a9abbc" stroke="#a9abbc" stroke-width="0.2"/>
    <path id="Path_1647" data-name="Path 1647" d="M122.589,116a6.585,6.585,0,1,0,6.585,6.585A6.592,6.592,0,0,0,122.589,116Zm0,11.758a5.173,5.173,0,1,1,5.173-5.173A5.179,5.179,0,0,1,122.589,127.762Zm0,0" transform="translate(-110.59 -110.589)" fill="#a9abbc" stroke="#a9abbc" stroke-width="0.2"/>
    <path id="Path_1648" data-name="Path 1648" d="M359.908,66.285a1.931,1.931,0,1,0,1.931,1.931A1.933,1.933,0,0,0,359.908,66.285Zm0,2.461a.53.53,0,1,1,.53-.53A.531.531,0,0,1,359.908,68.746Zm0,0" transform="translate(-341.168 -63.191)" fill="#a9abbc" stroke="#a9abbc" stroke-width="0.2"/>
  </g>
</svg>
