<svg xmlns="http://www.w3.org/2000/svg" xmlns:xlink="http://www.w3.org/1999/xlink" width="47" height="40" viewBox="0 0 47 40">
  <defs>
    <clipPath id="clip-path">
      <rect id="Rectangle_3713" data-name="Rectangle 3713" width="47" height="40" transform="translate(1089 344)" fill="#fff"/>
    </clipPath>
    <clipPath id="clip-path-2">
      <rect id="Rectangle_1484" data-name="Rectangle 1484" width="25" height="44" transform="translate(1128 341)" fill="#fff"/>
    </clipPath>
  </defs>
  <g id="Mask_Group_44" data-name="Mask Group 44" transform="translate(-1089 -344)" clip-path="url(#clip-path)">
    <g id="Group_9244" data-name="Group 9244">
      <g id="Mask_Group_28" data-name="Mask Group 28" transform="translate(-15 0.3)" opacity="0.2" clip-path="url(#clip-path-2)">
        <g id="transperacy" transform="translate(1113.644 345.412)">
          <rect id="Rectangle_1471" data-name="Rectangle 1471" width="7.349" height="7.348" transform="translate(7.349 7.348)"/>
          <rect id="Rectangle_1472" data-name="Rectangle 1472" width="7.349" height="7.348" transform="translate(22.046 7.348)"/>
          <rect id="Rectangle_1473" data-name="Rectangle 1473" width="7.349" height="7.349" transform="translate(7.349 22.044)"/>
          <rect id="Rectangle_1474" data-name="Rectangle 1474" width="7.349" height="7.349" transform="translate(22.046 22.044)"/>
          <rect id="Rectangle_1475" data-name="Rectangle 1475" width="7.349" height="7.348" transform="translate(0 0)"/>
          <rect id="Rectangle_1476" data-name="Rectangle 1476" width="7.349" height="7.348" transform="translate(14.697 0)"/>
          <rect id="Rectangle_1477" data-name="Rectangle 1477" width="7.349" height="7.348" transform="translate(0 14.696)"/>
          <rect id="Rectangle_1478" data-name="Rectangle 1478" width="7.349" height="7.348" transform="translate(29.498 0)"/>
          <rect id="Rectangle_1479" data-name="Rectangle 1479" width="7.349" height="7.348" transform="translate(29.498 14.696)"/>
          <rect id="Rectangle_1480" data-name="Rectangle 1480" width="7.349" height="7.348" transform="translate(14.697 14.696)"/>
          <rect id="Rectangle_1481" data-name="Rectangle 1481" width="7.349" height="7.349" transform="translate(0 29.393)"/>
          <rect id="Rectangle_1482" data-name="Rectangle 1482" width="7.349" height="7.349" transform="translate(29.498 29.393)"/>
          <rect id="Rectangle_1483" data-name="Rectangle 1483" width="7.349" height="7.349" transform="translate(14.697 29.393)"/>
        </g>
      </g>
      <path id="Rectangle_1485" data-name="Rectangle 1485" d="M3,0H24a0,0,0,0,1,0,0V38a0,0,0,0,1,0,0H3a3,3,0,0,1-3-3V3A3,3,0,0,1,3,0Z" transform="translate(1090 345)" fill="#8b0882"/>
      <g id="flower" transform="translate(1097.999 349.317)">
        <path id="Path_2181" data-name="Path 2181" d="M27.828,17.769v.087a4.8,4.8,0,0,1-5.951,3.413l-.963-.263.263.963a4.871,4.871,0,0,1-3.413,5.951h-.087a4.871,4.871,0,0,1-5.951-3.413l-.263-.963-.7.7a4.755,4.755,0,0,1-6.826,0l-.088-.088a4.86,4.86,0,0,1,0-6.914l.7-.7-.963-.263A4.8,4.8,0,0,1,.174,10.331v-.088A4.819,4.819,0,0,1,6.125,6.918L7,7.18l-.175-.963A4.871,4.871,0,0,1,10.238.267h.087A4.871,4.871,0,0,1,16.277,3.68l.263.963.7-.7a4.86,4.86,0,0,1,6.914,0l.087.088a4.755,4.755,0,0,1,0,6.826l-.7.7.963.263A4.819,4.819,0,0,1,27.828,17.769Z" transform="translate(0 0)" fill="#e24c4b"/>
        <circle id="Ellipse_224" data-name="Ellipse 224" cx="6.318" cy="6.318" r="6.318" transform="translate(7.683 7.776)" fill="#f4c533"/>
        <circle id="Ellipse_225" data-name="Ellipse 225" cx="4.317" cy="4.317" r="4.317" transform="translate(9.684 9.777)" fill="#fed93d"/>
      </g>
    </g>
  </g>
</svg>
