<svg xmlns="http://www.w3.org/2000/svg" width="24.727" height="21.345" viewBox="0 0 24.727 21.345">
  <g id="paint-bucket" transform="translate(0 -35.014)">
    <path id="Path_2174" data-name="Path 2174" d="M335.905,166.143v-1.507a3.626,3.626,0,0,0-3.622-3.622h-3.69l1.237,1.237,2.9,2.9a.724.724,0,0,0,.512.212h.492a.724.724,0,0,1,.724.724v1.43a.737.737,0,0,0,.643.739.724.724,0,0,0,.806-.72Z" transform="translate(-312.724 -119.915)" fill="#2a77f4"/>
    <g id="Group_9092" data-name="Group 9092" transform="translate(0 35.014)">
      <path id="Path_2175" data-name="Path 2175" d="M10.37,56.362a2.155,2.155,0,0,1-1.534-.636l-8.2-8.2a2.184,2.184,0,0,1,0-3.082l9.23-9.215a.725.725,0,0,1,1.024,0L21.132,45.473a.724.724,0,0,1,0,1.024L11.9,55.726a2.155,2.155,0,0,1-1.534.636Z" transform="translate(0 -35.018)" fill="#e1ebfa"/>
    </g>
    <g id="Paint_1_" transform="translate(3.501 35.014)">
      <g id="Group_9094" data-name="Group 9094">
        <g id="Group_9093" data-name="Group 9093">
          <path id="Path_2176" data-name="Path 2176" d="M80.9,44.446l-8.2-8.2a.724.724,0,1,1,1.024-1.024l8.2,8.2A.724.724,0,0,1,80.9,44.446Z" transform="translate(-72.496 -35.014)" fill="#4a696f"/>
        </g>
      </g>
      <path id="Path_2177" data-name="Path 2177" d="M114.472,151.609a.724.724,0,0,0,0-1.024l-5.121-5.121L98.076,156.739l4.1,4.1a2.167,2.167,0,0,0,3.067,0Z" transform="translate(-96.841 -140.13)" fill="#b8d0f7"/>
      <g id="Group_9096" data-name="Group 9096">
        <g id="Group_9095" data-name="Group 9095">
          <path id="Path_2178" data-name="Path 2178" d="M80.9,44.446l-8.2-8.2a.724.724,0,1,1,1.024-1.024l8.2,8.2A.724.724,0,0,1,80.9,44.446Z" transform="translate(-72.496 -35.014)" fill="#053c96"/>
        </g>
      </g>
      <g id="Group_9100" data-name="Group 9100" transform="translate(16.879 14.794)">
        <g id="Group_9099" data-name="Group 9099">
          <g id="Group_9098" data-name="Group 9098">
            <g id="Group_9097" data-name="Group 9097">
              <path id="Path_2179" data-name="Path 2179" d="M424.173,347.105A2.176,2.176,0,0,1,422,344.932c0-.942.493-1.3,1.546-3.26a.753.753,0,0,1,1.255,0c1.049,1.954,1.546,2.319,1.546,3.26A2.176,2.176,0,0,1,424.173,347.105Z" transform="translate(-422 -341.336)" fill="#2a77f4"/>
            </g>
          </g>
        </g>
      </g>
    </g>
  </g>
</svg>
