<svg xmlns="http://www.w3.org/2000/svg" width="24" height="18" viewBox="0 0 24 18">
  <g id="Path_1639" data-name="Path 1639" transform="translate(24) rotate(90)" fill="none">
    <path d="M2.25,24h13.5C16.993,24,18,22.657,18,21V3c0-1.657-1.007-3-2.25-3H2.25C1.007,0,0,1.343,0,3V21C0,22.657,1.007,24,2.25,24Z" stroke="none"/>
    <path d="M 15.75 22.5 C 16.0144100189209 22.5 16.5 21.93050956726074 16.5 21 L 16.5 3 C 16.5 2.0694899559021 16.0144100189209 1.5 15.75 1.5 L 2.25 1.5 C 1.985589981079102 1.5 1.5 2.0694899559021 1.5 3 L 1.5 21 C 1.5 21.93050956726074 1.985589981079102 22.5 2.25 22.5 L 15.75 22.5 M 15.75 24 L 2.25 24 C 1.007359981536865 24 0 22.6568603515625 0 21 L 0 3 C 0 1.343150019645691 1.007359981536865 -1.77635683940025e-15 2.25 -1.77635683940025e-15 L 15.75 -1.77635683940025e-15 C 16.99263954162598 -1.77635683940025e-15 18 1.343150019645691 18 3 L 18 21 C 18 22.6568603515625 16.99263954162598 24 15.75 24 Z" stroke="none" fill="#a9abbc"/>
  </g>
</svg>
