<svg xmlns="http://www.w3.org/2000/svg" width="24" height="24" viewBox="0 0 24 24">
  <g id="Path_1637" data-name="Path 1637" fill="none">
    <path d="M3,0H21a3,3,0,0,1,3,3V21a3,3,0,0,1-3,3H3a3,3,0,0,1-3-3V3A3,3,0,0,1,3,0Z" stroke="none"/>
    <path d="M 3 2 C 2.448600769042969 2 2 2.448600769042969 2 3 L 2 21 C 2 21.55139923095703 2.448600769042969 22 3 22 L 21 22 C 21.55139923095703 22 22 21.55139923095703 22 21 L 22 3 C 22 2.448600769042969 21.55139923095703 2 21 2 L 3 2 M 3 0 L 21 0 C 22.65685081481934 0 24 1.3431396484375 24 3 L 24 21 C 24 22.65685081481934 22.65685081481934 24 21 24 L 3 24 C 1.3431396484375 24 0 22.65685081481934 0 21 L 0 3 C 0 1.3431396484375 1.3431396484375 0 3 0 Z" stroke="none" fill="#2a77f4"/>
  </g>
</svg>
