<svg xmlns="http://www.w3.org/2000/svg" width="18" height="24" viewBox="0 0 18 24">
  <g id="Group_9225" data-name="Group 9225" transform="translate(-686 -189)">
    <g id="Path_13499" data-name="Path 13499" transform="translate(686 189)" fill="none">
      <path d="M2.25,0h13.5C16.993,0,18,1.343,18,3V21c0,1.657-1.007,3-2.25,3H2.25C1.007,24,0,22.657,0,21V3C0,1.343,1.007,0,2.25,0Z" stroke="none"/>
      <path d="M 2.25 1.5 C 1.985589981079102 1.5 1.5 2.069490432739258 1.5 3 L 1.5 21 C 1.5 21.93050956726074 1.985589981079102 22.5 2.25 22.5 L 15.75 22.5 C 16.0144100189209 22.5 16.5 21.93050956726074 16.5 21 L 16.5 3 C 16.5 2.069490432739258 16.0144100189209 1.5 15.75 1.5 L 2.25 1.5 M 2.25 0 L 15.75 0 C 16.99263954162598 0 18 1.3431396484375 18 3 L 18 21 C 18 22.65685081481934 16.99263954162598 24 15.75 24 L 2.25 24 C 1.007360458374023 24 0 22.65685081481934 0 21 L 0 3 C 0 1.3431396484375 1.007360458374023 0 2.25 0 Z" stroke="none" fill="#a9abbc"/>
    </g>
    <g id="Rectangle_3575" data-name="Rectangle 3575" transform="translate(688.5 192)" fill="#a9abbc" stroke="#a9abbc" stroke-width="1">
      <rect width="12.8" height="5" rx="1" stroke="none"/>
      <rect x="0.5" y="0.5" width="11.8" height="4" rx="0.5" fill="none"/>
    </g>
  </g>
</svg>
